<svg xmlns="http://www.w3.org/2000/svg" viewBox="0 0 274.54 61.16"><defs><style>.cls-1{fill:#f5f9e9;}</style></defs><title>gpa-logo</title><g id="Layer_2" data-name="Layer 2"><g id="Layer_1-2" data-name="Layer 1"><path class="cls-1" d="M.91,19.78A13.44,13.44,0,0,0,1.34,17a1.11,1.11,0,0,1,.09-.42.62.62,0,0,1,1.13-.06,1.73,1.73,0,0,1,.18.54c.06.31.08.64.13,1a5.74,5.74,0,0,0,.86,2.26c.2.31.37.63.56.94A7.64,7.64,0,0,1,5.42,25c0,1.4.11,2.8.23,4.19a19.4,19.4,0,0,0,.4,2.08c.15.74.3,1.48.44,2.22a4,4,0,0,1,.05.58c0,.23-.06.45-.27.5a.82.82,0,0,1-.55-.09A1.19,1.19,0,0,1,5.33,34a42.65,42.65,0,0,0-3-4.55A8,8,0,0,1,.82,26c-.15-1-.21-2.11-.31-3.17a16.11,16.11,0,0,1,.39-3"/><path class="cls-1" d="M7.68,25.36a12.3,12.3,0,0,0,.17-2.45A15.83,15.83,0,0,1,8.29,19,7.52,7.52,0,0,1,10,15.68c.55-.62,1.09-1.24,1.65-1.86s1.34-1.48,2-2.21a2.06,2.06,0,0,1,.58-.44.44.44,0,0,1,.65.49,2.91,2.91,0,0,1,0,.38,25.44,25.44,0,0,0-.68,4.13,8,8,0,0,1-1.63,4.27c-.55.68-1.07,1.39-1.63,2.06a13.79,13.79,0,0,0-1.56,2.36c-.27.52-.58,1-.88,1.52a1.55,1.55,0,0,1-.34.39c-.27.22-.49.11-.53-.25,0-.1,0-.19,0-.29h0c0-.29.07-.57.12-.86"/><path class="cls-1" d="M9.57,4.88c-.13.6-.29,1.19-.39,1.79A11.78,11.78,0,0,0,9,8.11C9,9.29,8.94,10.49,8.9,11.68a5.65,5.65,0,0,1-.48,1.75c-.2.55-.44,1.1-.67,1.64a9.6,9.6,0,0,0-.69,2.49C7,18,7,18.49,7,19a10,10,0,0,1-.2,1.33.57.57,0,0,1-.51.48.62.62,0,0,1-.78-.59c-.08-.47-.12-1-.15-1.44a22.65,22.65,0,0,0-.53-3,11.28,11.28,0,0,1-.15-4.27,7.36,7.36,0,0,1,.82-2.14C6.06,8.18,6.69,7.1,7.27,6c.38-.75.7-1.53,1.06-2.29a4.73,4.73,0,0,1,.53-.89c.22-.27.37-.25.6,0a1.41,1.41,0,0,1,.33.94c-.07.38-.13.76-.21,1.13"/><path class="cls-1" d="M9.62,11.91a14.44,14.44,0,0,0,1-3.85,7.39,7.39,0,0,1,.77-2.2,12.37,12.37,0,0,1,1.74-2.7,6.37,6.37,0,0,1,2.55-1.69A13.48,13.48,0,0,0,18.22.26,2,2,0,0,1,18.77,0c.43-.12.74.15.76.62a1,1,0,0,1-.43.85,9.17,9.17,0,0,0-1.8,1.82,7.68,7.68,0,0,0-.8,1.28c-.44.9-.85,1.81-1.26,2.73a5.79,5.79,0,0,1-1.07,1.55c-.54.58-1.12,1.13-1.64,1.73s-1.05,1.32-1.58,2c-.12.15-.21.31-.33.46-.25.33-.5.43-.74.31s-.4-.42-.41-.87a2.92,2.92,0,0,1,.15-.58"/><path class="cls-1" d="M26.84,54.26a3.38,3.38,0,0,1-.91-1.06c-.45-.84-.9-1.67-1.33-2.53a7.66,7.66,0,0,0-1.55-2.3,20.48,20.48,0,0,0-3-2.3,6.56,6.56,0,0,1-2-1.9,2.21,2.21,0,0,0-.69-.66c-.39-.23-.73,0-.76.48a1.67,1.67,0,0,0,.06.57,3.22,3.22,0,0,0,.27.66,17.68,17.68,0,0,1,1.37,3.67A9.4,9.4,0,0,0,22,54.21a20.73,20.73,0,0,0,3.88,2.05l2.3,1a3.38,3.38,0,0,1,.41.26l-.39.35c-.64.54-1.29,1.06-1.91,1.62a5.6,5.6,0,0,0-.71.87.51.51,0,0,0,0,.59.49.49,0,0,0,.61.17,2.43,2.43,0,0,0,.57-.37c.77-.62,1.53-1.26,2.3-1.88.26-.21.55-.39.8-.56l.21.12,2.82,2.25a3.38,3.38,0,0,0,.52.38.54.54,0,0,0,.67-.12.49.49,0,0,0,0-.62,3.44,3.44,0,0,0-.58-.73c-.65-.59-1.33-1.15-2-1.73l-.39-.36c.47-.23.86-.44,1.26-.61A38.19,38.19,0,0,0,36.43,55a9.71,9.71,0,0,0,4.31-4.65,20.48,20.48,0,0,0,.83-2.55,15.86,15.86,0,0,1,.58-1.57c.17-.41.39-.8.58-1.2a3.52,3.52,0,0,0,.21-.63.69.69,0,0,0-.23-.82.59.59,0,0,0-.79.14,5.81,5.81,0,0,0-.57.68A6.32,6.32,0,0,1,39.76,46c-.77.53-1.54,1.07-2.28,1.66a7.52,7.52,0,0,0-2.36,2.87c-.38.87-.87,1.7-1.31,2.53a3.92,3.92,0,0,1-1.06,1.3c-.65.5-1.28,1-1.93,1.52l-1,.76-3-2.35"/><path class="cls-1" d="M58.64,19.42A8.33,8.33,0,0,1,58.3,17a.88.88,0,0,0,0-.24.67.67,0,0,0-.63-.59.6.6,0,0,0-.65.49,5.88,5.88,0,0,0-.18,1,5.5,5.5,0,0,1-.54,1.93c-.31.57-.64,1.13-1,1.69a6.74,6.74,0,0,0-1,2.77c-.1,1.11-.14,2.21-.21,3.32a15.75,15.75,0,0,1-.3,3c-.15.57-.28,1.15-.39,1.74s-.22,1.3-.32,1.95a.5.5,0,0,0,.84.46,1.8,1.8,0,0,0,.38-.47,34.56,34.56,0,0,1,2.52-3.89,18.82,18.82,0,0,0,1.25-2,10,10,0,0,0,1-4.52,13.88,13.88,0,0,0-.39-4.21"/><path class="cls-1" d="M.82,26a8.06,8.06,0,0,0,1.53,3.51,42.4,42.4,0,0,1,3,4.55,1.2,1.2,0,0,0,.39.46.81.81,0,0,0,.55.09c.21,0,.28-.27.27-.5a4.14,4.14,0,0,0-.05-.58c-.14-.74-.29-1.48-.44-2.22a19.4,19.4,0,0,1-.4-2.08c-.12-1.39-.18-2.79-.23-4.19A7.63,7.63,0,0,0,4.28,21.2c-.19-.31-.36-.63-.56-.94A5.76,5.76,0,0,1,2.86,18c0-.32-.07-.64-.13-1a1.74,1.74,0,0,0-.18-.54.62.62,0,0,0-1.13.06,1.1,1.1,0,0,0-.09.42,13.36,13.36,0,0,1-.43,2.8,16.26,16.26,0,0,0-.39,3c.1,1.06.16,2.12.31,3.17"/><path class="cls-1" d="M59.58,30.58a1,1,0,0,0,0-.19c-.12-.34-.43-.45-.68-.2a1.43,1.43,0,0,0-.32.46,16.27,16.27,0,0,1-2.43,3.87,12.81,12.81,0,0,0-1.74,2.63c-.41.86-.83,1.72-1.23,2.58A12.69,12.69,0,0,1,50,44c-.57.5-1.17,1-1.75,1.44a1.08,1.08,0,0,0-.45.58c-.12.52.25.86.62.66a6.72,6.72,0,0,0,.81-.42,40.49,40.49,0,0,1,4.42-2.63,19.07,19.07,0,0,0,1.91-1.19A7,7,0,0,0,58,39.76a12.05,12.05,0,0,0,1-3.82c.12-1,.23-2,.36-3,.08-.64.17-1.27.25-1.84,0-.23,0-.39-.06-.55"/><path class="cls-1" d="M.05,31.57c.18,1.4.36,2.81.53,4.21a14,14,0,0,0,.57,2.73,6.81,6.81,0,0,0,1.61,2.76,12.08,12.08,0,0,0,2.78,2.05A46.66,46.66,0,0,1,10,45.94a7.77,7.77,0,0,0,1.11.64.43.43,0,0,0,.61-.15.64.64,0,0,0-.05-.72,3.8,3.8,0,0,0-.5-.48c-.42-.34-.85-.66-1.26-1a12.08,12.08,0,0,1-3-3.78q-.67-1.37-1.33-2.75a12.5,12.5,0,0,0-1.26-2.17q-.74-1-1.49-1.94a16.35,16.35,0,0,1-1.67-2.86,2.37,2.37,0,0,0-.36-.55c-.24-.26-.51-.21-.64.13A3.45,3.45,0,0,0,0,31c0,.26,0,.44.05.61"/><path class="cls-1" d="M7.58,26.22c0,.1,0,.19,0,.29,0,.36.26.47.53.25a1.53,1.53,0,0,0,.34-.39c.3-.5.61-1,.88-1.52a13.77,13.77,0,0,1,1.56-2.36c.56-.67,1.08-1.38,1.63-2.06a8,8,0,0,0,1.63-4.27A25.34,25.34,0,0,1,14.82,12a2.9,2.9,0,0,0,0-.38.44.44,0,0,0-.65-.49,2.08,2.08,0,0,0-.58.44c-.68.73-1.35,1.47-2,2.21s-1.1,1.24-1.65,1.86A7.52,7.52,0,0,0,8.29,19a15.81,15.81,0,0,0-.44,3.92,12.29,12.29,0,0,1-.17,2.45c-.05.28-.08.57-.12.86h0"/><path class="cls-1" d="M52.07,26.34c0-.18,0-.35-.06-.53A14.63,14.63,0,0,1,51.78,23a15.74,15.74,0,0,0-.27-3.21A8.51,8.51,0,0,0,50,16.14c-1.29-1.63-2.75-3.06-4.12-4.61a1.24,1.24,0,0,0-.45-.31c-.45-.18-.74.07-.67.59a1.48,1.48,0,0,0,0,.24,26.6,26.6,0,0,1,.71,4.32A7.84,7.84,0,0,0,47,20.3c.41.54.82,1.07,1.25,1.59A16.31,16.31,0,0,1,50.36,25c.22.45.49.88.76,1.31a2.18,2.18,0,0,0,.38.47c.28.25.51.13.56-.25a1.63,1.63,0,0,0,0-.19h0"/><path class="cls-1" d="M11.11,41A7.8,7.8,0,0,0,12,44.13c.65,1.12,1.35,2.21,2.06,3.29A15.81,15.81,0,0,0,15.21,49a2.8,2.8,0,0,0,.75.6.68.68,0,0,0,.55,0c.19-.09.2-.35.16-.56a4.92,4.92,0,0,0-.16-.6c-.34-1.18-.74-2.35-1-3.55a20.71,20.71,0,0,1-.34-4.27,14.7,14.7,0,0,0-.42-3.34,20,20,0,0,1-.56-3.12c-.06-.69-.1-1.38-.17-2.07,0-.24,0-.51-.33-.56s-.45.14-.58.37a1.71,1.71,0,0,0-.16.45,4.52,4.52,0,0,0-.1.67,5.64,5.64,0,0,1-.43,1.81c-.12.28-.23.56-.34.84a12.93,12.93,0,0,0-1,4.7c0,.17,0,.41,0,.65"/><path class="cls-1" d="M48.51,39.47a13.6,13.6,0,0,0-.93-3.67,8.94,8.94,0,0,1-.73-2.22,9.15,9.15,0,0,0-.14-1,3.25,3.25,0,0,0-.31-.79.41.41,0,0,0-.49-.17c-.19,0-.25.22-.28.4a4.49,4.49,0,0,0,0,.48,22.5,22.5,0,0,1-.66,4.72c-.1.39-.17.78-.25,1.18a31,31,0,0,0-.27,4.14,13.52,13.52,0,0,1-.34,2.77c-.29,1.08-.64,2.15-1,3.22a3.19,3.19,0,0,0-.14.8c0,.34.16.46.47.4a.87.87,0,0,0,.37-.16,5.23,5.23,0,0,0,.79-.72,37.53,37.53,0,0,0,2.66-3.9,8.41,8.41,0,0,0,1.25-4.61,8.23,8.23,0,0,0,0-.87"/><path class="cls-1" d="M6.75,47H6.48c-.42,0-.56.25-.39.67a4.63,4.63,0,0,0,.28.55A15.11,15.11,0,0,0,9.62,52a9.54,9.54,0,0,0,4,2.2c.73.19,1.45.41,2.19.56a10.51,10.51,0,0,1,3,1.21,1.83,1.83,0,0,0,.59.23c.39.06.59-.14.62-.56a.71.71,0,0,0-.17-.58,7.3,7.3,0,0,0-.57-.55c-.3-.25-.63-.45-.91-.72-1.16-1.08-2.32-2.15-3.45-3.26a8.88,8.88,0,0,0-2.84-1.92A30.68,30.68,0,0,0,7.9,47.21c-.38-.1-.77-.16-1.15-.23v0"/><path class="cls-1" d="M52,47.17a29,29,0,0,0-4.74,1.58,6.46,6.46,0,0,0-1.77,1.06c-.69.62-1.35,1.28-2,1.92a29.14,29.14,0,0,1-2.94,2.63,4.2,4.2,0,0,0-.78.73.74.74,0,0,0-.07.93c.15.22.42.28.78.13a9.77,9.77,0,0,0,.89-.46,8.73,8.73,0,0,1,2.2-.86c1-.24,2-.49,2.93-.78a7.35,7.35,0,0,0,2.42-1.17A22.18,22.18,0,0,0,52.07,50a9.45,9.45,0,0,0,1.43-2.16c.23-.49.09-.73-.41-.78h-.17c-.28,0-.59.07-.9.15"/><path class="cls-1" d="M54.65,10.48c-.37-.81-.74-1.62-1.16-2.4a33,33,0,0,1-2.29-4.59,2.09,2.09,0,0,0-.34-.57c-.28-.36-.55-.34-.79.07A1.41,1.41,0,0,0,49.87,4c.1.44.19.88.28,1.32a17.26,17.26,0,0,1,.39,2c.09,1.07.08,2.15.1,3.23a7.13,7.13,0,0,0,.47,2.64c.23.56.45,1.12.68,1.68a10.16,10.16,0,0,1,.8,2.9c0,.45,0,.9,0,1.35a6.29,6.29,0,0,0,.23,1.22.6.6,0,0,0,.7.39.58.58,0,0,0,.53-.51,3.62,3.62,0,0,0,.12-.76A17,17,0,0,1,54.74,16a14,14,0,0,0,.35-3,6.21,6.21,0,0,0-.45-2.57"/><path class="cls-1" d="M9.45,2.81c-.23-.26-.39-.28-.6,0a4.78,4.78,0,0,0-.53.89C8,4.45,7.65,5.24,7.27,6c-.57,1.12-1.2,2.2-1.78,3.31a7.42,7.42,0,0,0-.82,2.14,11.3,11.3,0,0,0,.15,4.27,22.82,22.82,0,0,1,.53,3c0,.48.07,1,.15,1.44a.62.62,0,0,0,.78.59.57.57,0,0,0,.51-.48A9.83,9.83,0,0,0,7,19c0-.46,0-.94.07-1.4a9.57,9.57,0,0,1,.69-2.49c.23-.54.47-1.08.67-1.64a5.63,5.63,0,0,0,.48-1.75c0-1.19.08-2.38.14-3.57a11.8,11.8,0,0,1,.15-1.44c.11-.6.26-1.19.39-1.79.08-.38.14-.76.21-1.13a1.42,1.42,0,0,0-.33-.94"/><path class="cls-1" d="M50,11.85a15.63,15.63,0,0,1-1-3.76,6.08,6.08,0,0,0-.25-1,13.32,13.32,0,0,0-1.86-3.41,4.72,4.72,0,0,0-1.48-1.4,19.59,19.59,0,0,0-1.89-.92A11.86,11.86,0,0,1,41.59.42a3.48,3.48,0,0,0-.7-.32.52.52,0,0,0-.63.14.69.69,0,0,0-.13.76,1.75,1.75,0,0,0,.45.58,10.94,10.94,0,0,1,1.64,1.65,5.3,5.3,0,0,1,.89,1.33c.18.43.38.84.55,1.27a10.74,10.74,0,0,0,2.7,4.05,14,14,0,0,1,2.35,2.79,3.35,3.35,0,0,0,.5.62.5.5,0,0,0,.81,0,1,1,0,0,0,.17-.6,3.61,3.61,0,0,0-.23-.82"/><path class="cls-1" d="M9.88,13.36c.24.12.48,0,.74-.31.12-.15.21-.31.33-.46.52-.67,1-1.35,1.58-2s1.1-1.14,1.64-1.73a5.84,5.84,0,0,0,1.07-1.55c.41-.91.82-1.83,1.26-2.73a7.76,7.76,0,0,1,.8-1.28A9.2,9.2,0,0,1,19.1,1.5a1,1,0,0,0,.43-.85c0-.47-.33-.74-.76-.62a1.87,1.87,0,0,0-.54.24,13.49,13.49,0,0,1-2.56,1.2,6.38,6.38,0,0,0-2.55,1.69,12.34,12.34,0,0,0-1.74,2.7,7.39,7.39,0,0,0-.77,2.2,14.39,14.39,0,0,1-1,3.85,2.29,2.29,0,0,0-.15.58.87.87,0,0,0,.41.87"/><path class="cls-1" d="M7.88,33A11.51,11.51,0,0,0,8,34.19c.13,1.23.28,2.46.43,3.69a3.32,3.32,0,0,0,.19.74c.12.31.4.36.6.11a1.35,1.35,0,0,0,.2-.43c.08-.24.13-.49.2-.74a40.35,40.35,0,0,1,1.85-5.24,13.45,13.45,0,0,0,1-3.95,10.38,10.38,0,0,1,1-3.49,3.65,3.65,0,0,0,.26-.67.54.54,0,0,0-.1-.58.46.46,0,0,0-.59,0,4.63,4.63,0,0,0-.64.45c-.66.58-1.32,1.17-2,1.77a6.81,6.81,0,0,0-2.21,4.1C8,30.94,8,32,7.88,33h0"/><path class="cls-1" d="M51.6,30.86A7.12,7.12,0,0,0,50,26.68a28,28,0,0,0-3.09-2.89,1.08,1.08,0,0,0-.32-.18c-.43-.16-.73.08-.67.56a2,2,0,0,0,.19.59,11.22,11.22,0,0,1,1.06,3.77,12.35,12.35,0,0,0,.89,3.58,44,44,0,0,1,2.15,6.24,1.17,1.17,0,0,0,.2.43c.2.25.43.23.57-.06a1.62,1.62,0,0,0,.14-.45c.08-.49.15-1,.21-1.48a29.65,29.65,0,0,0,.33-3.65c0-.76-.06-1.51-.12-2.27"/><path class="cls-1" d="M27.21,19.17a.47.47,0,0,0,.39-.59c0-.29-.18-.39-.53-.38-.56,0-1.11,0-1.67,0-.33,0-.66-.07-1-.09a.38.38,0,0,0-.45.31.48.48,0,0,0,.25.6c.15.08.31.13.46.19a.59.59,0,0,1,.4.58c0,.39,0,.77,0,1.16a.59.59,0,0,1-.41.66,6,6,0,0,1-1.13.31,3,3,0,0,1-3.15-1.77,5,5,0,0,1-.15-3.76,2.46,2.46,0,0,1,2.23-1.83,5.51,5.51,0,0,1,1.08,0,1.92,1.92,0,0,1,1.63,1.21c.07.16.13.33.21.48a.58.58,0,0,0,.71.26c.24-.07.34-.21.34-.55s0-.84-.05-1.25a.76.76,0,0,0-.51-.72l-.38-.16a7.39,7.39,0,0,0-2.67-.39,4.74,4.74,0,0,0-4.61,4.39,4.61,4.61,0,0,0,2.83,4.86,5.78,5.78,0,0,0,2.76.3,5.11,5.11,0,0,0,2.34-.82.9.9,0,0,0,.44-.84c0-.5,0-1,0-1.5,0-.19,0-.38,0-.59l.55-.14"/><path class="cls-1" d="M35.58,32.38a6.16,6.16,0,0,0,1.93,0l-.94-2.24h-.12l-.88,2.27m.93,1.06c-.35,0-.69,0-1,0a.39.39,0,0,0-.45.3c-.13.39-.3.77-.44,1.16s-.07.44.24.61a3.77,3.77,0,0,1,.44.25.43.43,0,0,1,.16.51.36.36,0,0,1-.39.27c-.18,0-.36,0-.54,0l-1.57.07-.22,0a.44.44,0,0,1-.51-.29.46.46,0,0,1,.22-.58,2.47,2.47,0,0,0,1.17-1.52c.52-1.28,1.09-2.55,1.59-3.84.34-.86.6-1.75.92-2.62a1.26,1.26,0,0,1,.31-.51c.38-.33.69-.26.89.23.44,1.07.86,2.16,1.3,3.24.56,1.39,1.14,2.77,1.71,4.15a1.34,1.34,0,0,0,.84.81.46.46,0,0,1,.37.48c0,.31-.18.5-.46.45a10.53,10.53,0,0,0-2.65,0c-.41,0-.63-.23-.51-.57a.68.68,0,0,1,.27-.3c.56-.36.56-.36.3-1-.12-.31-.25-.62-.37-.93a.41.41,0,0,0-.45-.31c-.38,0-.75,0-1.13,0"/><path class="cls-1" d="M30.85,26.12a1.7,1.7,0,0,0,1.88-2,3,3,0,0,0-.11-.61,1,1,0,0,0-.8-.82,11.24,11.24,0,0,0-1.21-.11c-.2,0-.3.13-.33.32a2.45,2.45,0,0,0,0,.38q0,1.11,0,2.22c0,.63,0,.63.6.63m-.57,1c0,.21,0,.37,0,.53,0,.42,0,.84,0,1.26,0,.79,0,.74.66.87.32.07.43.2.46.45s-.07.48-.39.52H30.9l-2.53,0c-.34,0-.49-.12-.52-.39s.1-.43.42-.53.43-.17.43-.6c0-.61,0-1.23,0-1.84,0-1.39,0-2.77,0-4.16,0-.55-.05-.61-.55-.78a1,1,0,0,1-.29-.12.44.44,0,0,1-.17-.51.36.36,0,0,1,.4-.31c.3,0,.6,0,.9,0,.77,0,1.54-.06,2.3,0a5.07,5.07,0,0,1,1.38.21,2.29,2.29,0,0,1,1.71,2.07,2.65,2.65,0,0,1-1.05,2.56,4.1,4.1,0,0,1-2.36.72c-.22,0-.44,0-.69,0"/><path class="cls-1" d="M17.36,37.34,29.87,50.17l12.5-12.53L42.16,9.51H17.36ZM29.86,52,16.1,37.92V8.16H43.41l.23,30.05Z"/><polygon class="cls-1" points="42.51 30.07 22.45 9.32 23.32 8.35 43.38 29.1 42.51 30.07"/><polygon class="cls-1" points="36.55 43.54 16.49 22.8 17.37 21.83 37.43 42.57 36.55 43.54"/><path class="cls-1" d="M19.08,36.43,30,47.63l4-4.16L19,27.95ZM30,49.37,17.91,37l-.05-12L35.6,43.47Z"/><polygon class="cls-1" points="25.64 9.97 41.72 9.97 41.81 26.68 25.64 9.97"/><path class="cls-1" d="M88.73,16.73c.49,0,1-.08,1.05-1.13V4.95H89c-1.89,0-2.16.38-2.59,2.06l-.18.69h-.43c.08-.93.12-2.12.12-3.11V4.14h8.91v.44c0,1,0,2.18.12,3.11h-.43L94.38,7c-.43-1.68-.7-2.06-2.57-2.06H91V15.6c0,1,.49,1.13,1.05,1.13v.32a12.11,12.11,0,0,0-1.44-.12c-.6,0-1.27.06-1.93.12Z"/><path class="cls-1" d="M97.54,5.15c0-.77-.35-.81-1-.81V4a14.07,14.07,0,0,0,1.62.12A12.51,12.51,0,0,0,99.8,4v.32c-.39,0-1,.08-1,.81V9.83h7.06V5.15c0-.73-.6-.81-1-.81V4a12.34,12.34,0,0,0,1.64.12A14.77,14.77,0,0,0,108.09,4v.32c-.6,0-1,0-1,.81v10.8c0,.56.43.79,1,.79v.32a15.66,15.66,0,0,0-1.68-.12,11.48,11.48,0,0,0-1.54.12v-.32c.55,0,1,0,1-.81V10.64H98.81v5.29c0,.79.45.81,1,.81v.32a10.25,10.25,0,0,0-1.44-.12,16.47,16.47,0,0,0-1.78.12v-.32c.53,0,1-.22,1-.79Z"/><path class="cls-1" d="M111.62,5.31c0-.73-.58-.85-1.05-.85V4.14h9.07a25.54,25.54,0,0,0,.2,2.71h-.31c-.41-1.15-.37-1.9-1.81-1.9h-4.82V9.81h3.26c.82,0,.94-.38,1.09-1.33h.39c-.06.65-.12,1.27-.12,1.92a13.93,13.93,0,0,0,.12,1.55h-.49c0-.91-.18-1.33-1.05-1.33h-3.2v5.51h5c1.52,0,1.85-.89,2.07-2.28h.43a14.9,14.9,0,0,0-.25,3.09h-9.59v-.32c.64,0,1.05-.08,1.05-.89Z"/><path class="cls-1" d="M137.42,17.06h-.51l-.08-.36a3.53,3.53,0,0,0-.47-1.15,4.36,4.36,0,0,1-3.53,1.72C129,17.26,127,14,127,10.64s2.42-6.82,6.3-6.82a8.3,8.3,0,0,1,3.65.77,14.09,14.09,0,0,0,.18,3h-.49c-.39-1.47-.6-2.83-3.26-2.83-3.1,0-5.11,2.36-5.11,5.41,0,3.73,2.42,6.22,5,6.22a3.25,3.25,0,0,0,2.81-1.84,5,5,0,0,0,.1-1.11V12.23c0-.75-.88-.89-1.31-.89V11a14.87,14.87,0,0,0,1.79.12,15.76,15.76,0,0,0,1.77-.12v.32c-.33,0-1,.12-1,.79Z"/><path class="cls-1" d="M141.41,5.55c0-1-.58-1.09-1.05-1.09V4.14h5.11c2.38,0,4,.89,4,3.07,0,2.34-2.26,3.53-4.33,3.53,1.4,1.66,2.83,3.27,4.11,5.07a2,2,0,0,0,1.7.93v.32a7,7,0,0,0-1.15-.12,7.46,7.46,0,0,0-1.19.12,61.2,61.2,0,0,0-4.29-5.43c-.88-1-1.11-1.23-1.11-1.35a.17.17,0,0,1,.18-.18c.21,0,.55,0,1,0,1.72,0,3.86-.63,3.86-2.75,0-1.92-1.72-2.44-3.55-2.44h-1.93V15.6c0,1,.49,1.13,1.05,1.13v.32a12.3,12.3,0,0,0-1.44-.12c-.6,0-1.27.06-1.93.12v-.32c.49,0,1-.08,1.05-1.13Z"/><path class="cls-1" d="M158.3,16.35c2.48,0,4.76-2.16,4.76-5.55,0-3-2-6.08-5-6.08s-4.86,2.24-4.86,5.63c0,3,2.11,6,5.11,6m-.51-12.53c4.33,0,6.53,3.77,6.53,7a6.2,6.2,0,0,1-5.95,6.4c-3.9,0-6.45-3.33-6.45-6.94s2.77-6.5,5.87-6.5"/><path class="cls-1" d="M166.64,13c.27,2.34,1.21,3.41,3.55,3.41,1.87,0,3.63-.93,3.63-3.07s-1.74-2.18-3.59-2.56c-2.63-.52-4.15-1.35-4.15-3.43,0-2.46,2.46-3.57,4.7-3.57a14.84,14.84,0,0,1,3.47.48,23.46,23.46,0,0,0,.14,2.91h-.49c-.23-1.88-1.07-2.58-3.12-2.58-1.6,0-3.53.73-3.53,2.58,0,1.57,1.4,2,3.43,2.36,2.28.4,4.41,1,4.41,3.51,0,2.73-2.18,4.18-5.09,4.18a7.74,7.74,0,0,1-3.7-.91c0-.79-.06-2.56-.14-3.31Z"/><path class="cls-1" d="M177.48,13c.27,2.34,1.21,3.41,3.55,3.41,1.87,0,3.63-.93,3.63-3.07s-1.74-2.18-3.59-2.56c-2.63-.52-4.15-1.35-4.15-3.43,0-2.46,2.46-3.57,4.7-3.57a14.84,14.84,0,0,1,3.47.48,23.46,23.46,0,0,0,.14,2.91h-.49c-.23-1.88-1.07-2.58-3.12-2.58-1.6,0-3.53.73-3.53,2.58,0,1.57,1.4,2,3.43,2.36,2.28.4,4.41,1,4.41,3.51,0,2.73-2.18,4.18-5.09,4.18a7.75,7.75,0,0,1-3.71-.91c0-.79-.06-2.56-.14-3.31Z"/><path class="cls-1" d="M189.09,5.31c0-.73-.58-.85-1.05-.85V4.14h9.07a25.54,25.54,0,0,0,.2,2.71H197c-.41-1.15-.37-1.9-1.81-1.9h-4.82V9.81h3.26c.82,0,.94-.38,1.09-1.33h.39c-.06.65-.12,1.27-.12,1.92a13.93,13.93,0,0,0,.12,1.55h-.49c0-.91-.18-1.33-1.05-1.33h-3.2v5.51h5c1.52,0,1.85-.89,2.07-2.28h.43a14.89,14.89,0,0,0-.25,3.09H188v-.32c.64,0,1.05-.08,1.05-.89Z"/><path class="cls-1" d="M207.14,15.6c0,1,.49,1.13,1.05,1.13v.32a12.32,12.32,0,0,0-1.44-.12c-.6,0-1.27.06-1.93.12v-.32c.49,0,1-.08,1.05-1.13V5.55c0-1-.58-1.09-1.05-1.09V4.14h4.8C212.47,4.14,214,5.91,214,8a3.82,3.82,0,0,1-3.86,4.1c-1.37,0-2.61-.63-2.61-.93,0-.08,0-.16.12-.16a7.07,7.07,0,0,0,1.7.28,3.16,3.16,0,0,0,3.39-3c0-2.56-2-3.27-4.05-3.27h-1.5Z"/><path class="cls-1" d="M221.69,16.35c2.48,0,4.76-2.16,4.76-5.55,0-3-2-6.08-5-6.08s-4.85,2.24-4.85,5.63c0,3,2.11,6,5.11,6m-.51-12.53c4.33,0,6.53,3.77,6.53,7a6.2,6.2,0,0,1-5.95,6.4c-3.9,0-6.45-3.33-6.45-6.94s2.77-6.5,5.87-6.5"/><path class="cls-1" d="M231.91,15.95c0,.57.43.79,1,.79v.32a10.44,10.44,0,0,0-3.18,0v-.32c.53,0,1-.22,1-.79V5.15c0-.77-.35-.81-1-.81V4a15,15,0,0,0,1.6.12A15.05,15.05,0,0,0,232.86,4v.32c-.6,0-1,0-1,.81Z"/><path class="cls-1" d="M236.23,5.39c0-.89-.35-1-1-1V4a8.11,8.11,0,0,0,1.25.12A6.18,6.18,0,0,0,237.72,4c2.4,3.55,4.8,7.13,7.1,10.82h0V5.39a1,1,0,0,0-1.11-1V4a12.75,12.75,0,0,0,1.54.12,11.81,11.81,0,0,0,1.5-.12v.32c-.6,0-1,.16-1,1V17.06h-.94c-2.42-3.81-5.09-7.79-7.64-11.63h0V15.68c0,.69.49,1,1.23,1v.32a11.81,11.81,0,0,0-1.66-.12,9.68,9.68,0,0,0-1.5.12v-.32c.53,0,1-.22,1-1Z"/><path class="cls-1" d="M251.27,16.73c.49,0,1-.08,1.05-1.13V4.95h-.74c-1.89,0-2.16.38-2.59,2.06l-.18.69h-.43c.08-.93.12-2.12.12-3.11V4.14h8.91v.44c0,1,0,2.18.12,3.11h-.43L256.92,7c-.43-1.68-.7-2.06-2.57-2.06h-.76V15.6c0,1,.49,1.13,1.05,1.13v.32a12.11,12.11,0,0,0-1.44-.12c-.6,0-1.27.06-1.93.12Z"/><path class="cls-1" d="M260.08,5.31c0-.73-.58-.85-1.05-.85V4.14h9.07a25.54,25.54,0,0,0,.2,2.71H268c-.41-1.15-.37-1.9-1.81-1.9h-4.82V9.81h3.26c.82,0,.94-.38,1.09-1.33h.39c-.06.65-.12,1.27-.12,1.92a13.93,13.93,0,0,0,.12,1.55h-.49c0-.91-.18-1.33-1.05-1.33h-3.2v5.51h5c1.52,0,1.85-.89,2.07-2.28h.43a14.83,14.83,0,0,0-.25,3.09H259v-.32c.64,0,1.05-.08,1.05-.89Z"/><path class="cls-1" d="M99.74,38.87,94.09,23.7,88.64,38.87ZM79,52.92c1.93-.26,3-2.31,4.06-5.23l6.89-18.41c1.29-3.44,1.93-5.69,1.93-6.56s-.79-1.28-2.13-1.28v-.82a20.79,20.79,0,0,0,3.47.31,16.53,16.53,0,0,0,2.92-.31c.45,1.49,1.34,4.05,2.08,5.95L104.1,42,107.17,50a4.2,4.2,0,0,0,3,2.92v.82a32.83,32.83,0,0,0-3.86-.31,42.64,42.64,0,0,0-4.41.31v-.82c1.24-.26,2.18-.56,2.18-2.05s-3-8.31-3.47-9.95H87.9c-.94,2.26-3.12,8.41-3.12,10s1.24,1.9,2.18,2v.82a22.22,22.22,0,0,0-3.17-.31c-1.59,0-3.22.16-4.81.31Z"/><path class="cls-1" d="M131.87,51.13c-2.28,2-5.5,3.13-9.61,3.13-10.1,0-16.4-7.9-16.4-17.64,0-8.82,7-16.51,15.36-16.51a21.09,21.09,0,0,1,9.26,1.95,35.64,35.64,0,0,0,.45,7.54h-1.24c-1-3.74-1.53-7.18-8.27-7.18-7.63,0-12.33,7-12.33,13.95,0,6.82,5,15.59,14,15.59,3.47,0,6.29-1.54,8.82-3.33Z"/><path class="cls-1" d="M151.46,38.82l-5.65-15.18-5.45,15.18Zm-20.76,14c1.93-.26,3-2.31,4.06-5.23l6.89-18.41c1.29-3.44,1.93-5.69,1.93-6.56s-.79-1.28-2.13-1.28v-.82a20.8,20.8,0,0,0,3.47.31,16.54,16.54,0,0,0,2.92-.31c.45,1.49,1.34,4.05,2.08,5.95l5.89,15.38L158.89,50a4.2,4.2,0,0,0,3,2.92v.82a32.83,32.83,0,0,0-3.86-.31,42.66,42.66,0,0,0-4.41.31v-.82c1.24-.26,2.18-.56,2.18-2.05s-3-8.31-3.47-9.95H139.62c-.94,2.26-3.12,8.41-3.12,10s1.24,1.9,2.18,2v.82a22.22,22.22,0,0,0-3.17-.31c-1.59,0-3.22.16-4.81.31Z"/><path class="cls-1" d="M166.72,51.7h4.36c8.52,0,14.41-4.77,14.41-13.38s-4.9-15-15.31-15h-3.47ZM163.5,24.11c0-1.95-.89-2.05-2.43-2.05v-.82h10.55c11.1,0,17.09,7.28,17.09,16.25,0,9.54-6,16.25-16.4,16.25H161.08v-.82c1.34,0,2.43-.56,2.43-2Z"/><path class="cls-1" d="M191,24.42c0-1.85-1.49-2.15-2.68-2.15v-.82h23a65.26,65.26,0,0,0,.49,6.87h-.79c-1-2.92-.94-4.82-4.61-4.82H194.25V35.86h8.27c2.08,0,2.38-1,2.77-3.38h1c-.15,1.64-.3,3.23-.3,4.87a35.14,35.14,0,0,0,.3,3.95h-1.24c0-2.31-.45-3.38-2.68-3.38h-8.12v14H207c3.86,0,4.71-2.26,5.25-5.79h1.09a37.8,37.8,0,0,0-.64,7.85H188.36v-.82c1.64,0,2.68-.2,2.68-2.26Z"/><path class="cls-1" d="M213,53.29c1.29-.2,2.68-.31,2.68-3.28,0-2.51,1-15.08,1-25.23,0-2.67-1.44-3-2.73-3V21a27.26,27.26,0,0,0,3.52.31,15.91,15.91,0,0,0,2.67-.31c1.24,3.59,2.72,7.13,4.36,10.77L231.9,49.7,241.9,21a20.23,20.23,0,0,0,3,.31,18.93,18.93,0,0,0,2.92-.31v.82a2.24,2.24,0,0,0-2.38,2.26c0,7.74,1.59,26,1.59,26.71a2.46,2.46,0,0,0,2.72,2.51v.82a34.28,34.28,0,0,0-4-.31,42.4,42.4,0,0,0-4.41.31v-.82c.94,0,2.43-.2,2.43-2.21,0-6.56-.84-16.51-1.34-25h-.1l-9.76,28h-2.23L219,26.11h-.1c-.35,8.2-.74,20.15-.74,24.66,0,1.85.59,2.51,2.43,2.51v.82a34.3,34.3,0,0,0-4-.31,28.62,28.62,0,0,0-3.62.31Z"/><path class="cls-1" d="M247.6,21.19a41.43,41.43,0,0,0,4.36.31,43.32,43.32,0,0,0,4.46-.31V22c-1.29,0-2.33.26-2.33,1.39,0,.82.79,2.36,1.88,4.46l5.5,10.72,5.15-9.84c1.09-2.1,1.88-3.85,1.88-5.23,0-1.13-1-1.49-2.33-1.49v-.82c1.59.15,3.12.31,4.71.31a28.61,28.61,0,0,0,3.67-.31V22c-1.93,0-3.07,2-5.2,6.05l-6.89,13.08v10c0,1.95,1.09,2.36,2.33,2.36v.82a29.39,29.39,0,0,0-3.67-.31,38.68,38.68,0,0,0-4.21.31V53.5a2.07,2.07,0,0,0,2.33-2.15V41L252.1,27c-1.78-3.49-3-5-4.51-5Z"/></g></g></svg>