<svg xmlns="http://www.w3.org/2000/svg" viewBox="0 0 159.09 163.17"><defs><style>.cls-1{fill:#f5f9e9;}</style></defs><title>gpa-crest</title><g id="Layer_2" data-name="Layer 2"><g id="Layer_1-2" data-name="Layer 1"><path class="cls-1" d="M2.41,52.76a35.85,35.85,0,0,0,1.15-7.48,3,3,0,0,1,.25-1.11,1.65,1.65,0,0,1,3-.15,4.61,4.61,0,0,1,.47,1.44c.15.84.21,1.7.34,2.55a15.3,15.3,0,0,0,2.29,6c.52.81,1,1.68,1.49,2.5a20.37,20.37,0,0,1,3,10.17c.13,3.73.3,7.46.62,11.18a51.75,51.75,0,0,0,1.07,5.54c.39,2,.79,3.95,1.16,5.93a10.59,10.59,0,0,1,.14,1.54c0,.61-.16,1.2-.73,1.32A2.18,2.18,0,0,1,15.26,92a3.17,3.17,0,0,1-1-1.23A113.78,113.78,0,0,0,6.29,78.62a21.46,21.46,0,0,1-4.09-9.37c-.4-2.8-.56-5.63-.82-8.45a43,43,0,0,1,1-8"/><path class="cls-1" d="M20.48,67.66a32.8,32.8,0,0,0,.45-6.54,42.22,42.22,0,0,1,1.18-10.45,20,20,0,0,1,4.47-8.85c1.46-1.65,2.91-3.31,4.39-5,1.78-2,3.58-4,5.4-5.89a5.5,5.5,0,0,1,1.56-1.18,1.17,1.17,0,0,1,1.73,1.3,7.77,7.77,0,0,1-.12,1,67.88,67.88,0,0,0-1.81,11,21.35,21.35,0,0,1-4.36,11.39C31.91,56.34,30.52,58.23,29,60a36.8,36.8,0,0,0-4.15,6.3c-.73,1.38-1.54,2.71-2.35,4a4.14,4.14,0,0,1-.9,1c-.72.59-1.32.28-1.4-.68,0-.26,0-.51,0-.77h-.05c.1-.76.18-1.53.32-2.29"/><path class="cls-1" d="M25.54,13c-.34,1.59-.76,3.16-1,4.77a31.43,31.43,0,0,0-.39,3.83c-.16,3.17-.25,6.35-.37,9.52a15.08,15.08,0,0,1-1.27,4.68c-.55,1.48-1.17,2.92-1.79,4.37a25.62,25.62,0,0,0-1.85,6.64c-.16,1.23-.07,2.49-.18,3.73a26.59,26.59,0,0,1-.53,3.54,1.53,1.53,0,0,1-1.36,1.27,1.67,1.67,0,0,1-2.08-1.58c-.22-1.26-.31-2.55-.4-3.83a60.41,60.41,0,0,0-1.41-8.09,30.09,30.09,0,0,1-.4-11.38,19.64,19.64,0,0,1,2.18-5.7c1.53-3,3.22-5.85,4.74-8.83,1-2,1.86-4.09,2.82-6.11a12.63,12.63,0,0,1,1.4-2.38c.58-.73,1-.66,1.61,0a3.77,3.77,0,0,1,.89,2.5c-.19,1-.36,2-.57,3"/><path class="cls-1" d="M25.67,31.78A38.53,38.53,0,0,0,28.3,21.5a19.72,19.72,0,0,1,2.06-5.88A33,33,0,0,1,35,8.42a17,17,0,0,1,6.8-4.52A36,36,0,0,0,48.62.71,5.19,5.19,0,0,1,50.06.08c1.15-.32,2,.39,2,1.65A2.58,2.58,0,0,1,51,4a24.47,24.47,0,0,0-4.8,4.86A20.49,20.49,0,0,0,44,12.28c-1.18,2.39-2.26,4.84-3.37,7.28a15.46,15.46,0,0,1-2.85,4.13c-1.44,1.56-3,3-4.39,4.61s-2.81,3.52-4.21,5.3c-.31.4-.56.84-.88,1.23-.68.87-1.32,1.15-2,.83s-1.08-1.11-1.09-2.32a7.78,7.78,0,0,1,.4-1.54"/><path class="cls-1" d="M71.61,144.76a9,9,0,0,1-2.42-2.83c-1.2-2.23-2.41-4.47-3.54-6.74a20.44,20.44,0,0,0-4.13-6.13,54.63,54.63,0,0,0-7.89-6.12,17.51,17.51,0,0,1-5.23-5.06,5.9,5.9,0,0,0-1.85-1.76c-1-.6-1.94,0-2,1.29a4.44,4.44,0,0,0,.17,1.52,8.59,8.59,0,0,0,.71,1.77A47.18,47.18,0,0,1,49,130.47a25.09,25.09,0,0,0,9.7,14.15,55.32,55.32,0,0,0,10.35,5.48q3.08,1.3,6.14,2.65a9,9,0,0,1,1.1.7l-1.05.93c-1.7,1.44-3.44,2.82-5.1,4.32A14.94,14.94,0,0,0,68.28,161a1.36,1.36,0,0,0-.12,1.57,1.3,1.3,0,0,0,1.64.45,6.47,6.47,0,0,0,1.52-1c2.05-1.66,4.07-3.36,6.12-5,.7-.56,1.46-1,2.14-1.51a5.8,5.8,0,0,1,.55.33l7.54,6a9,9,0,0,0,1.39,1,1.43,1.43,0,0,0,1.79-.32,1.31,1.31,0,0,0-.05-1.66,9.17,9.17,0,0,0-1.54-2c-1.75-1.58-3.56-3.08-5.34-4.61-.3-.25-.58-.53-1-1,1.26-.62,2.29-1.18,3.36-1.63a101.87,101.87,0,0,0,11-5,25.89,25.89,0,0,0,11.49-12.4,54.62,54.62,0,0,0,2.21-6.8,42.31,42.31,0,0,1,1.54-4.19c.46-1.1,1.05-2.13,1.54-3.21a9.39,9.39,0,0,0,.56-1.69,1.85,1.85,0,0,0-.6-2.18,1.58,1.58,0,0,0-2.1.37,15.49,15.49,0,0,0-1.51,1.82,16.86,16.86,0,0,1-4.23,4.16C104,124,102,125.49,100,127a20.07,20.07,0,0,0-6.29,7.66c-1,2.33-2.31,4.52-3.5,6.76a10.46,10.46,0,0,1-2.84,3.47c-1.73,1.33-3.43,2.7-5.15,4-.84.66-1.7,1.29-2.67,2l-7.94-6.26"/><path class="cls-1" d="M156.43,51.81a22.23,22.23,0,0,1-.89-6.35,2.34,2.34,0,0,0-.09-.63,1.8,1.8,0,0,0-1.67-1.58,1.59,1.59,0,0,0-1.72,1.3,15.7,15.7,0,0,0-.49,2.64,14.67,14.67,0,0,1-1.45,5.15c-.82,1.52-1.71,3-2.57,4.5a18,18,0,0,0-2.68,7.38c-.26,2.95-.38,5.91-.55,8.86a42,42,0,0,1-.79,7.92c-.39,1.53-.74,3.08-1,4.63-.33,1.72-.59,3.46-.85,5.19a1.33,1.33,0,0,0,2.25,1.24,4.8,4.8,0,0,0,1-1.27,92.2,92.2,0,0,1,6.71-10.38,50.2,50.2,0,0,0,3.35-5.34c2.08-3.71,2.33-7.88,2.54-12.05a37,37,0,0,0-1-11.23"/><path class="cls-1" d="M2.19,69.25a21.51,21.51,0,0,0,4.09,9.37,113.12,113.12,0,0,1,7.94,12.13,3.21,3.21,0,0,0,1,1.22,2.16,2.16,0,0,0,1.46.25c.57-.12.76-.72.73-1.32a11,11,0,0,0-.14-1.54c-.37-2-.77-4-1.17-5.93a51.76,51.76,0,0,1-1.07-5.54c-.32-3.72-.49-7.45-.62-11.18a20.36,20.36,0,0,0-3-10.17c-.51-.83-1-1.69-1.48-2.5a15.36,15.36,0,0,1-2.29-6c-.13-.85-.19-1.71-.34-2.55A4.65,4.65,0,0,0,6.83,44a1.65,1.65,0,0,0-3,.15,2.94,2.94,0,0,0-.25,1.11,35.65,35.65,0,0,1-1.15,7.48,43.38,43.38,0,0,0-1,8c.27,2.82.43,5.65.83,8.45"/><path class="cls-1" d="M158.94,81.57a2.55,2.55,0,0,0-.09-.5c-.33-.91-1.14-1.19-1.83-.54a3.82,3.82,0,0,0-.85,1.23,43.41,43.41,0,0,1-6.48,10.33,34.17,34.17,0,0,0-4.66,7c-1.11,2.29-2.21,4.58-3.28,6.89a33.87,33.87,0,0,1-8.29,11.25c-1.51,1.34-3.11,2.57-4.68,3.84a2.88,2.88,0,0,0-1.19,1.56c-.32,1.38.67,2.29,1.66,1.77a17.94,17.94,0,0,0,2.15-1.13,108,108,0,0,1,11.78-7,50.87,50.87,0,0,0,5.1-3.16,18.57,18.57,0,0,0,6.39-7.05,32.16,32.16,0,0,0,2.79-10.2c.31-2.64.62-5.28,1-7.92.21-1.7.46-3.39.67-4.91-.06-.63-.1-1.05-.15-1.48"/><path class="cls-1" d="M.15,84.23c.47,3.75,1,7.49,1.42,11.24a37.21,37.21,0,0,0,1.53,7.28,18.16,18.16,0,0,0,4.28,7.37,32.23,32.23,0,0,0,7.42,5.47,124.49,124.49,0,0,1,11.95,7,20.73,20.73,0,0,0,3,1.71,1.15,1.15,0,0,0,1.62-.39,1.7,1.7,0,0,0-.15-1.92,10.13,10.13,0,0,0-1.34-1.29c-1.11-.92-2.28-1.77-3.37-2.71a32.24,32.24,0,0,1-8.13-10.08q-1.79-3.65-3.54-7.33a33.34,33.34,0,0,0-3.37-5.8q-2-2.6-4-5.18A43.61,43.61,0,0,1,3,81.92a6.34,6.34,0,0,0-1-1.47c-.65-.7-1.37-.57-1.71.35A9.19,9.19,0,0,0,0,82.6c.06.7.09,1.17.15,1.64"/><path class="cls-1" d="M20.22,70c0,.26,0,.52,0,.77.08,1,.68,1.26,1.4.68a4.08,4.08,0,0,0,.9-1c.81-1.33,1.62-2.67,2.35-4A36.74,36.74,0,0,1,29,60c1.49-1.8,2.89-3.68,4.35-5.51a21.35,21.35,0,0,0,4.36-11.39,67.61,67.61,0,0,1,1.81-11,7.74,7.74,0,0,0,.12-1,1.17,1.17,0,0,0-1.73-1.3A5.55,5.55,0,0,0,36.38,31c-1.82,1.94-3.61,3.91-5.4,5.89-1.48,1.64-2.93,3.3-4.39,5a20.07,20.07,0,0,0-4.46,8.85,42.18,42.18,0,0,0-1.18,10.45,32.78,32.78,0,0,1-.45,6.54c-.14.76-.21,1.52-.32,2.29h.05"/><path class="cls-1" d="M138.92,70.27c-.05-.47-.08-.94-.17-1.4a39,39,0,0,1-.61-7.43,42,42,0,0,0-.73-8.57c-.74-3.55-1.76-6.94-4-9.8-3.43-4.34-7.34-8.17-11-12.29a3.3,3.3,0,0,0-1.2-.83c-1.21-.49-2,.2-1.8,1.57a4,4,0,0,0,.09.64,71,71,0,0,1,1.89,11.52,20.91,20.91,0,0,0,4,10.49c1.09,1.43,2.19,2.86,3.32,4.24a43.51,43.51,0,0,1,5.68,8.29c.6,1.21,1.32,2.36,2,3.51a5.81,5.81,0,0,0,1,1.25c.74.66,1.36.36,1.49-.67a4.35,4.35,0,0,0,0-.52h0"/><path class="cls-1" d="M29.63,109.51a20.81,20.81,0,0,0,2.25,8.22c1.74,3,3.6,5.89,5.49,8.77a42.19,42.19,0,0,0,3.19,4.19,7.48,7.48,0,0,0,2,1.61,1.8,1.8,0,0,0,1.47.11c.51-.23.52-.94.43-1.5a13.13,13.13,0,0,0-.43-1.6c-.91-3.15-2-6.27-2.71-9.47a55.25,55.25,0,0,1-.92-11.4,39.21,39.21,0,0,0-1.12-8.91,53.24,53.24,0,0,1-1.5-8.33c-.17-1.84-.27-3.68-.44-5.52-.06-.63-.12-1.35-.89-1.49s-1.21.39-1.54,1a4.55,4.55,0,0,0-.41,1.2,12.06,12.06,0,0,0-.27,1.78A15,15,0,0,1,33.08,93c-.31.75-.6,1.5-.9,2.25a34.49,34.49,0,0,0-2.66,12.53c0,.45,0,1.1.11,1.73"/><path class="cls-1" d="M129.41,105.29a36.27,36.27,0,0,0-2.47-9.79,23.85,23.85,0,0,1-2-5.93,24.42,24.42,0,0,0-.37-2.67,8.67,8.67,0,0,0-.83-2.1,1.08,1.08,0,0,0-1.29-.45c-.51.13-.67.58-.74,1.06a12,12,0,0,0-.13,1.28,60,60,0,0,1-1.75,12.59c-.27,1-.46,2.09-.67,3.14-.72,3.64-.5,7.36-.73,11a36.06,36.06,0,0,1-.91,7.39c-.79,2.88-1.71,5.73-2.54,8.59a8.52,8.52,0,0,0-.38,2.13c0,.9.42,1.23,1.25,1.07a2.33,2.33,0,0,0,1-.42,14,14,0,0,0,2.1-1.91,100.11,100.11,0,0,0,7.11-10.4,22.43,22.43,0,0,0,3.34-12.3,21.94,21.94,0,0,0,0-2.32"/><path class="cls-1" d="M18,125.45c-.24,0-.48,0-.72,0-1.13.05-1.49.66-1,1.79a12.36,12.36,0,0,0,.75,1.47c2.24,4,5.41,7,8.68,9.92a25.45,25.45,0,0,0,10.72,5.88c1.95.51,3.88,1.1,5.85,1.5a28,28,0,0,1,8,3.22,4.88,4.88,0,0,0,1.57.61c1,.17,1.58-.38,1.66-1.49A1.89,1.89,0,0,0,53,146.8a19.48,19.48,0,0,0-1.52-1.46c-.79-.66-1.67-1.21-2.43-1.91-3.09-2.87-6.18-5.74-9.21-8.7a23.7,23.7,0,0,0-7.59-5.12A81.85,81.85,0,0,0,21.08,126c-1-.26-2-.42-3.06-.62,0,0,0,.08,0,.12"/><path class="cls-1" d="M138.78,125.85a77.44,77.44,0,0,0-12.64,4.2,17.25,17.25,0,0,0-4.71,2.82c-1.84,1.66-3.61,3.41-5.41,5.11a77.73,77.73,0,0,1-7.84,7,11.2,11.2,0,0,0-2.08,1.94,2,2,0,0,0-.18,2.49c.39.58,1.13.75,2.09.34a26.06,26.06,0,0,0,2.38-1.24,23.28,23.28,0,0,1,5.86-2.29c2.62-.63,5.23-1.3,7.82-2.09a19.6,19.6,0,0,0,6.45-3.11,59.17,59.17,0,0,0,8.38-7.73,25.21,25.21,0,0,0,3.82-5.76c.62-1.3.25-1.94-1.09-2.09l-.46,0c-.74.12-1.58.19-2.4.4"/><path class="cls-1" d="M145.78,27.95c-1-2.16-2-4.32-3.1-6.4-2.17-4-4.56-7.89-6.11-12.25a5.56,5.56,0,0,0-.9-1.51c-.76-1-1.46-.9-2.11.18A3.76,3.76,0,0,0,133,10.8c.26,1.17.51,2.34.75,3.51a46,46,0,0,1,1,5.41c.23,2.86.22,5.74.28,8.62a19,19,0,0,0,1.26,7c.62,1.49,1.2,3,1.82,4.49a27.11,27.11,0,0,1,2.12,7.75c.12,1.19,0,2.41.13,3.6a16.78,16.78,0,0,0,.61,3.25,1.61,1.61,0,0,0,1.87,1.05,1.54,1.54,0,0,0,1.41-1.35,9.66,9.66,0,0,0,.32-2A45.4,45.4,0,0,1,146,42.75a37.35,37.35,0,0,0,.93-7.93,16.55,16.55,0,0,0-1.19-6.87"/><path class="cls-1" d="M25.22,7.5c-.62-.68-1-.76-1.61,0a12.76,12.76,0,0,0-1.4,2.38c-1,2-1.8,4.12-2.82,6.11-1.53,3-3.21,5.86-4.74,8.83a19.79,19.79,0,0,0-2.18,5.7,30.15,30.15,0,0,0,.4,11.38A60.87,60.87,0,0,1,14.28,50c.09,1.28.19,2.57.4,3.83a1.66,1.66,0,0,0,2.08,1.58,1.52,1.52,0,0,0,1.36-1.27,26.23,26.23,0,0,0,.53-3.55c.11-1.24,0-2.5.18-3.72a25.52,25.52,0,0,1,1.85-6.64c.62-1.45,1.24-2.89,1.79-4.37a15,15,0,0,0,1.27-4.68c.12-3.18.22-6.35.37-9.52a31.48,31.48,0,0,1,.39-3.83c.28-1.6.7-3.17,1-4.77.21-1,.38-2,.56-3a3.78,3.78,0,0,0-.88-2.5"/><path class="cls-1" d="M133.29,31.62a41.68,41.68,0,0,1-2.57-10,16.22,16.22,0,0,0-.67-2.72,35.54,35.54,0,0,0-5-9.1A12.59,12.59,0,0,0,121.14,6a52.27,52.27,0,0,0-5-2.44,31.65,31.65,0,0,1-5.16-2.48,9.28,9.28,0,0,0-1.87-.87,1.39,1.39,0,0,0-1.67.37,1.84,1.84,0,0,0-.35,2,4.68,4.68,0,0,0,1.2,1.56,29.19,29.19,0,0,1,4.38,4.41A14.13,14.13,0,0,1,115,12.17c.47,1.14,1,2.24,1.47,3.39a28.65,28.65,0,0,0,7.21,10.81A37.31,37.31,0,0,1,130,33.81a8.93,8.93,0,0,0,1.32,1.66,1.34,1.34,0,0,0,2.16-.09,2.57,2.57,0,0,0,.46-1.59,9.63,9.63,0,0,0-.61-2.18"/><path class="cls-1" d="M26.36,35.65c.65.32,1.29,0,2-.83.31-.4.57-.84.88-1.23,1.39-1.77,2.74-3.6,4.21-5.3s2.94-3.05,4.38-4.61a15.57,15.57,0,0,0,2.86-4.13c1.11-2.43,2.18-4.89,3.36-7.28a20.71,20.71,0,0,1,2.13-3.41A24.55,24.55,0,0,1,51,4a2.59,2.59,0,0,0,1.14-2.28c0-1.26-.88-2-2-1.65a5,5,0,0,0-1.45.63,36,36,0,0,1-6.83,3.2A17,17,0,0,0,35,8.42a32.92,32.92,0,0,0-4.63,7.2A19.71,19.71,0,0,0,28.3,21.5a38.38,38.38,0,0,1-2.63,10.28,6.1,6.1,0,0,0-.4,1.54,2.31,2.31,0,0,0,1.09,2.32"/><path class="cls-1" d="M21,88.11a30.72,30.72,0,0,0,.21,3.11c.34,3.29.74,6.57,1.15,9.84a8.85,8.85,0,0,0,.5,2c.32.84,1.06,1,1.61.29a3.61,3.61,0,0,0,.53-1.14c.2-.65.35-1.32.53-2a107.65,107.65,0,0,1,4.93-14,35.89,35.89,0,0,0,2.68-10.53,27.7,27.7,0,0,1,2.61-9.32,9.75,9.75,0,0,0,.69-1.78,1.45,1.45,0,0,0-.27-1.56,1.24,1.24,0,0,0-1.58-.13,12.35,12.35,0,0,0-1.71,1.19c-1.77,1.55-3.53,3.12-5.26,4.72a18.18,18.18,0,0,0-5.91,10.94c-.39,2.75-.49,5.55-.71,8.33h0"/><path class="cls-1" d="M137.66,82.34a19,19,0,0,0-4.2-11.16,74.81,74.81,0,0,0-8.24-7.71,2.87,2.87,0,0,0-.85-.48c-1.15-.43-2,.22-1.78,1.5a5.46,5.46,0,0,0,.52,1.56A29.93,29.93,0,0,1,126,76.11a33,33,0,0,0,2.37,9.55,117.35,117.35,0,0,1,5.74,16.66,3.12,3.12,0,0,0,.54,1.13c.53.68,1.15.6,1.53-.17a4.32,4.32,0,0,0,.39-1.21c.21-1.31.39-2.63.57-3.95a79.1,79.1,0,0,0,.89-9.74c-.1-2-.15-4-.31-6"/><path class="cls-1" d="M72.6,51.14a1.24,1.24,0,0,0,1-1.59c-.1-.78-.48-1-1.41-1-1.48,0-3,.11-4.45.1-.88,0-1.76-.17-2.64-.23a1,1,0,0,0-1.2.82,1.28,1.28,0,0,0,.66,1.6c.4.2.82.34,1.23.52a1.58,1.58,0,0,1,1.06,1.55c0,1,0,2.06.11,3.09a1.57,1.57,0,0,1-1.11,1.76,16.08,16.08,0,0,1-3,.83,7.92,7.92,0,0,1-8.39-4.71,13.25,13.25,0,0,1-.39-10A6.57,6.57,0,0,1,60,39a14.71,14.71,0,0,1,2.88,0,5.13,5.13,0,0,1,4.34,3.23c.19.43.34.87.57,1.28a1.55,1.55,0,0,0,1.9.68c.64-.19.91-.57.9-1.47,0-1.12-.08-2.23-.15-3.35a2,2,0,0,0-1.36-1.93c-.34-.13-.67-.3-1-.43A19.72,19.72,0,0,0,61,36,12.64,12.64,0,0,0,48.7,47.72c-.49,6.3,2.68,11,7.55,13a15.41,15.41,0,0,0,7.36.8,13.63,13.63,0,0,0,6.24-2.19A2.4,2.4,0,0,0,71,57.07c0-1.33,0-2.67,0-4,0-.51.07-1,.11-1.57.62-.15,1-.24,1.47-.37"/><path class="cls-1" d="M94.91,86.38a16.45,16.45,0,0,0,5.16-.08l-2.49-6h-.31l-2.35,6.06M97.4,89.2c-.93,0-1.85,0-2.77,0a1,1,0,0,0-1.2.79c-.36,1-.8,2.06-1.17,3.11s-.18,1.17.65,1.63a10.05,10.05,0,0,1,1.17.66,1.14,1.14,0,0,1,.43,1.36,1,1,0,0,1-1,.72c-.48,0-1-.05-1.44,0-1.4,0-2.8.11-4.2.18-.2,0-.4.09-.59.1a1.17,1.17,0,0,1-1.36-.79,1.23,1.23,0,0,1,.57-1.54c1.73-.78,2.43-2.37,3.11-4.06,1.39-3.42,2.9-6.8,4.25-10.24.9-2.29,1.61-4.67,2.45-7a3.36,3.36,0,0,1,.82-1.36c1-.89,1.85-.68,2.38.61,1.18,2.87,2.29,5.77,3.46,8.64,1.51,3.7,3.05,7.38,4.56,11.07a3.57,3.57,0,0,0,2.25,2.16,1.23,1.23,0,0,1,1,1.28c0,.82-.47,1.34-1.23,1.19a28.09,28.09,0,0,0-7.08-.13c-1.09.07-1.68-.63-1.35-1.52a1.81,1.81,0,0,1,.71-.8c1.49-1,1.51-1,.81-2.72-.33-.83-.68-1.65-1-2.48a1.09,1.09,0,0,0-1.19-.83c-1,0-2,0-3,0"/><path class="cls-1" d="M82.31,69.69c3.43.09,5.21-2.07,5-5.35A8.11,8.11,0,0,0,87,62.7a2.73,2.73,0,0,0-2.14-2.19,30,30,0,0,0-3.21-.31c-.53,0-.8.33-.89.86a6.53,6.53,0,0,0-.06,1q0,3,0,5.93c0,1.68,0,1.68,1.6,1.68m-1.52,2.73c0,.57-.07,1-.07,1.41,0,1.12,0,2.24,0,3.35,0,2.1.06,2,1.76,2.33.85.18,1.16.53,1.23,1.19.09.88-.2,1.27-1,1.38h-.24c-2.25,0-4.5.1-6.75.13-.92,0-1.31-.32-1.38-1s.26-1.15,1.11-1.41c1-.31,1.14-.45,1.16-1.61,0-1.63,0-3.27,0-4.9,0-3.7,0-7.4,0-11.1,0-1.47-.14-1.63-1.47-2.09a2.75,2.75,0,0,1-.77-.33,1.19,1.19,0,0,1-.45-1.35,1,1,0,0,1,1.05-.84c.8.05,1.6.13,2.41.12,2.05,0,4.1-.15,6.15-.09a13.52,13.52,0,0,1,3.68.56,6.11,6.11,0,0,1,4.56,5.53,7.08,7.08,0,0,1-2.81,6.82,11,11,0,0,1-6.28,1.92c-.59,0-1.18,0-1.85,0"/><path class="cls-1" d="M46.31,99.61l33.38,34.22L113,100.41l-.57-75H46.31Zm33.35,39.17L42.94,101.15V21.78h72.86l.61,80.18Z"/><polygon class="cls-1" points="113.39 80.21 59.88 24.87 62.22 22.29 115.73 77.63 113.39 80.21"/><polygon class="cls-1" points="97.51 116.16 44 60.81 46.34 58.23 99.85 113.57 97.51 116.16"/><path class="cls-1" d="M50.91,97.19,80,127.06,90.52,116,50.81,74.56ZM80,131.71,47.79,98.61l-.14-32L95,116Z"/><polygon class="cls-1" points="68.41 26.61 111.29 26.61 111.53 71.19 68.41 26.61"/></g></g></svg>